# xmcd CD database file
#
# Track frame offsets:
#	150
#	11727
#	25992
#	38330
#	53683
#	66203
#	81841
#	95439
#	107973
#	119355
#	131030
#	146455
#
# Disc length: 2162 seconds
#
# Revision: 0
# Processed by: cddbd v1.5.1PL0 Copyright (c) Steve Scherf et al.
# Submitted via: CDex 1.51
#
DISCID=9d08700c
DTITLE=Kevin Beanland - Country Boy
DYEAR=2000
DGENRE=Country
TTITLE0=Country Boy
TTITLE1=Two Hearts Joined By God
TTITLE2=Cassandra's Fiddle Reel
TTITLE3=Momma's Love
TTITLE4=Kevin John's Jig
TTITLE5=To Hell And Back
TTITLE6=Another Change In Life
TTITLE7=A Tribute To MacPhee
TTITLE8=Little Jimmy's Guitar
TTITLE9=Kevin's Fiddle Combo
TTITLE10=Your Number One With Me
TTITLE11=Teardrops Oh Her Pillow
EXTD=YEAR: 2000
EXTT0=
EXTT1=
EXTT2=
EXTT3=
EXTT4=
EXTT5=
EXTT6=
EXTT7=
EXTT8=
EXTT9=
EXTT10=
EXTT11=
PLAYORDER=
